<svg version="1.1" viewBox="0.0 0.0 172.20209973753282 171.5249343832021" fill="none" stroke="none" stroke-linecap="square" stroke-miterlimit="10" xmlns:xlink="http://www.w3.org/1999/xlink" xmlns="http://www.w3.org/2000/svg"><clipPath id="p.0"><path d="m0 0l172.2021 0l0 171.52493l-172.2021 0l0 -171.52493z" clip-rule="nonzero"/></clipPath><g clip-path="url(#p.0)"><path fill="#000000" fill-opacity="0.0" d="m0 0l172.2021 0l0 171.52493l-172.2021 0z" fill-rule="evenodd"/><path fill="#000000" fill-opacity="0.0" d="m210.98425 446.56955l184.50394 0l0 295.71652l-184.50394 0z" fill-rule="evenodd"/><path fill="#000000" fill-opacity="0.0" d="m4.270579 85.642525l0 0c0 -44.939457 36.430622 -81.37008 81.37008 -81.37008l0 0c21.580688 0 42.27749 8.572895 57.53734 23.832745c15.259842 15.25985 23.832748 35.95665 23.832748 57.53734l0 0c0 44.939445 -36.430634 81.37008 -81.37009 81.37008l0 0c-44.939453 0 -81.37008 -36.430634 -81.37008 -81.37008z" fill-rule="evenodd"/><path stroke="#1b8cc4" stroke-width="8.0" stroke-linejoin="round" stroke-linecap="butt" d="m4.270579 85.642525l0 0c0 -44.939457 36.430622 -81.37008 81.37008 -81.37008l0 0c21.580688 0 42.27749 8.572895 57.53734 23.832745c15.259842 15.25985 23.832748 35.95665 23.832748 57.53734l0 0c0 44.939445 -36.430634 81.37008 -81.37009 81.37008l0 0c-44.939453 0 -81.37008 -36.430634 -81.37008 -81.37008z" fill-rule="evenodd"/><path fill="#1b8cc4" d="m22.617645 75.783l126.04724 0l0 19.716537l-126.04724 0z" fill-rule="evenodd"/><path stroke="#1b8cc4" stroke-width="1.0" stroke-linejoin="round" stroke-linecap="butt" d="m22.617645 75.783l126.04724 0l0 19.716537l-126.04724 0z" fill-rule="evenodd"/><path fill="#1b8cc4" d="m95.499535 22.617645l0 126.04724l-19.716537 0l0 -126.04724z" fill-rule="evenodd"/><path stroke="#1b8cc4" stroke-width="1.0" stroke-linejoin="round" stroke-linecap="butt" d="m95.499535 22.617645l0 126.04724l-19.716537 0l0 -126.04724z" fill-rule="evenodd"/></g></svg>